<svg width="331" height="220" viewBox="0 0 331 220" fill="none" xmlns="http://www.w3.org/2000/svg">
<g clip-path="url(#clip0_397_845)">
<path d="M335.889 23.9926C326.39 38.5651 302.718 84.926 254.894 95.8913C233.205 100.863 215.228 86.3146 209.483 77.3741C206.853 73.2848 204.843 66.596 206.322 61.9383C210.593 48.4939 222.599 55.4578 225.723 61.0086C229.706 68.0868 234.822 79.2542 226.611 92.3689C222.5 98.9383 208.856 95.3519 202.744 91.6089C192.147 85.1209 188.312 78.9503 179.329 70.3908C170.344 61.8327 163.136 52.4443 162.254 40.0547C161.736 32.8031 168.813 20.6119 179.827 28.9952C188.626 35.6911 191.349 56.741 192.025 64.2434C192.598 70.586 192.178 78.914 190.127 84.9683C188.075 91.0225 178.002 100.579 163.784 96.4868C146.971 91.6471 135.928 81.0053 130.83 64.3461C128.285 56.0291 130.341 43.9402 143.379 48.4345C147.528 49.8655 152.31 55.8478 154.606 59.5683C164.338 75.3388 172.512 90.408 167.208 108.262C163.064 122.215 138.027 130.355 128.639 114.821C126.636 111.509 123.222 105.927 128.303 101.037C132.703 96.8021 138.244 98.1443 141.219 99.4526C149.052 102.896 155.951 112.958 157.531 121.35C159.112 129.742 155.334 138.161 154.362 146.665C153.336 155.645 155.805 167.305 161.599 172.404C167.81 177.87 175.437 173.742 181.924 168.498C188.411 163.255 194.906 148.354 201.487 143.226C210.917 135.878 222.225 139.391 234.093 138.1C238.261 137.646 249.772 135.249 249.879 125.351C249.967 117.192 239.978 108.486 208.341 105.718C202.973 105.249 189.768 103.858 180.696 113.57C167.918 127.249 167.836 143.068 154.817 156.521C125.597 186.715 74.0825 196.493 29.9632 202.216C29.9632 202.216 -65.5302 209.538 -144.952 323.863" stroke="#5F101C" stroke-width="8" stroke-linejoin="round"/>
</g>
<defs>
<clipPath id="clip0_397_845">
<rect width="331" height="220" fill="white"/>
</clipPath>
</defs>
</svg>
